PathFileType  4	(X/Y/Z) C:\Users\antoi\Documents\MyRepositories\mobilecap\ResultsAnalysis
DataRate	CameraRate	NumFrames	NumMarkers	Units	OrigDataRate	OrigDataStartFrame	OrigNumFrames
100.0	100.0	4	51	mm	100.0	19	144
Frame#	Time	r_knee			r_shank_antsup			r_ankle			r_calc			r_5meta			r_toe			L_knee			L_shank_antsup			L_ankle			L_calc			L_5meta			L_toe			r_sh2			r_sh3			r_sh4			L_sh2			L_sh3			r_thigh1			r_thigh2			r_thigh3			r_thigh4			r_thigh5			L_thigh1			L_thigh2			L_thigh3			L_thigh4			r.ASIS			r.PSIS			L.ASIS			L.PSIS			C7			R_Shoulder			L_Shoulder			R_Sternum			L_Sternum			R_humerus			R_elbow_med			R_elbow_lat			R_forearm			R_wrist_radius			R_wrist_ulna			L_humerus			L_elbow_med			L_elbow_lat			L_forearm			L_wrist_radius			L_wrist_ulna			R_HJC			L_HJC			R_HJC_reg			L_HJC_reg			
		X1	Y1	Z1	X2	Y2	Z2	X3	Y3	Z3	X4	Y4	Z4	X5	Y5	Z5	X6	Y6	Z6	X7	Y7	Z7	X8	Y8	Z8	X9	Y9	Z9	X10	Y10	Z10	X11	Y11	Z11	X12	Y12	Z12	X13	Y13	Z13	X14	Y14	Z14	X15	Y15	Z15	X16	Y16	Z16	X17	Y17	Z17	X18	Y18	Z18	X19	Y19	Z19	X20	Y20	Z20	X21	Y21	Z21	X22	Y22	Z22	X23	Y23	Z23	X24	Y24	Z24	X25	Y25	Z25	X26	Y26	Z26	X27	Y27	Z27	X28	Y28	Z28	X29	Y29	Z29	X30	Y30	Z30	X31	Y31	Z31	X32	Y32	Z32	X33	Y33	Z33	X34	Y34	Z34	X35	Y35	Z35	X36	Y36	Z36	X37	Y37	Z37	X38	Y38	Z38	X39	Y39	Z39	X40	Y40	Z40	X41	Y41	Z41	X42	Y42	Z42	X43	Y43	Z43	X44	Y44	Z44	X45	Y45	Z45	X46	Y46	Z46	X47	Y47	Z47	X48	Y48	Z48	X49	Y49	Z49	X50	Y50	Z50	X51	Y51	Z51	

19	0.18000000	140.88205	538.10058	-68.77014	190.18003	452.05922	-85.80047	181.64723	115.18149	-133.23342	105.76662	73.82332	-184.22852	302.51964	47.08966	-98.58877	358.78416	81.46606	-161.70048	43.62447	523.22738	-400.42522	-10.87772	458.08618	-415.31419	-285.56398	285.86426	-334.33739	-357.75446	330.80392	-270.64041	-310.33866	142.21652	-355.06315	-247.19227	108.05308	-301.84003	195.65982	340.97981	-69.20456	127.84656	454.64940	-43.64455	114.63716	338.93889	-44.35610	-59.32611	531.16450	-396.57523	-150.69456	451.48725	-380.55450	158.85870	870.23984	-43.89603	180.21116	761.63112	-50.42997	130.25464	727.04061	-19.75600	52.23793	846.86060	-23.32133	75.19160	734.66374	-33.83036	96.10292	816.18510	-402.41180	120.01832	677.38832	-400.44180	-11.50501	796.97963	-404.63490	7.62344	661.95736	-407.49049	129.14731	1078.22985	-91.98553	-61.86448	1070.93006	-136.88973	95.73319	1053.14275	-343.57271	-79.70755	1065.61059	-245.57020	9.16318	1617.42596	-249.46706	88.80938	1558.84128	-81.37856	39.27783	1532.52506	-417.81293	124.45065	1518.86263	-223.84891	115.44271	1511.09307	-277.98970	73.49152	1401.09644	-8.14344	-52.95510	1222.67467	-40.28155	-30.68654	1237.18560	39.95851	-5.45090	1066.60131	69.76717	13.36773	969.03385	61.18003	-20.65377	985.21632	89.46368	31.07086	1410.39204	-498.38478	23.64846	1162.72969	-464.33398	32.09801	1187.55732	-543.75504	99.63890	1155.18017	-569.19801	236.29715	1040.17563	-586.84092	205.84429	1014.74258	-599.01584	56.11280	954.70633	-93.46686	22.56501	941.99837	-297.30324	76.07155	981.70915	-114.90614	48.83755	973.58993	-280.81003	
20	0.19000000	145.87927	538.72011	-68.09728	194.00920	452.00562	-84.84204	181.89361	115.30663	-133.52903	105.82343	73.92124	-184.27378	302.53920	46.99296	-98.52099	359.01171	80.68339	-161.92381	71.09542	527.20006	-400.27769	17.97909	461.32152	-414.92456	-257.03047	288.66712	-335.18392	-331.78101	331.22357	-272.38436	-277.17046	144.83289	-356.70006	-213.72260	112.55459	-302.61281	197.64501	340.74887	-68.51926	131.05362	455.30360	-43.59807	116.28385	339.78707	-44.82994	-30.72167	534.45878	-397.27020	-122.26433	454.90048	-381.91798	168.77897	870.37123	-41.86492	188.60180	761.44678	-48.44334	137.55144	727.54605	-18.51998	61.55137	848.59589	-22.22964	82.90839	736.18334	-33.22120	114.29479	820.57574	-401.44935	142.31982	682.48746	-399.50075	7.32348	798.14986	-403.52093	30.40231	663.77341	-406.21006	141.48364	1080.02193	-91.27991	-49.61684	1073.06275	-135.59463	107.79528	1055.44519	-342.71683	-67.55778	1067.41241	-244.24732	22.30692	1619.29328	-250.30900	103.22814	1561.07865	-82.86369	50.31195	1533.62266	-418.75444	137.91979	1520.71303	-225.53391	128.10704	1512.61764	-279.61091	90.30231	1403.63088	-8.85741	-34.77225	1223.53812	-37.67965	-10.99637	1238.75316	42.06920	17.69641	1068.74002	72.04173	37.83269	971.44155	63.51274	4.44126	987.16984	92.35922	39.97343	1410.33889	-498.18317	29.57459	1163.34649	-459.83376	37.59446	1186.56095	-539.64296	104.07252	1152.72520	-565.43643	238.28767	1034.79905	-582.89989	207.14723	1009.76801	-594.21367	68.56088	956.58813	-92.63104	34.62264	944.12399	-296.41735	88.10796	984.24625	-113.85536	60.74206	975.62784	-279.61072	
21	0.20000000	150.91342	539.36710	-67.54746	197.86866	452.01109	-84.22896	182.14732	115.46145	-133.77533	105.84894	74.03934	-184.29132	302.54107	46.93539	-98.44636	359.24870	79.97541	-162.12594	97.92019	531.74906	-399.87962	46.35304	465.05587	-414.40158	-227.61990	289.89783	-336.09071	-305.07593	329.72052	-274.22242	-242.50621	145.84564	-358.30711	-178.59043	115.78854	-303.38331	199.89006	340.65590	-68.00200	134.54916	456.04273	-43.51710	118.32927	340.73825	-44.98401	-3.05101	537.90558	-397.57899	-94.18447	457.78888	-382.98388	178.46534	870.52164	-40.45897	196.95479	761.37112	-47.19400	145.01521	728.09002	-17.82721	70.76339	850.21482	-21.24065	90.68436	737.62707	-32.80494	132.31432	825.37105	-400.35023	164.34669	688.09122	-398.43067	26.05563	799.77421	-402.48799	53.00051	666.15633	-404.92401	153.48635	1081.69217	-90.42341	-37.56927	1075.09557	-134.26099	119.83542	1057.88860	-341.74882	-55.43765	1069.37440	-242.93612	35.34552	1621.08799	-251.31229	117.52411	1563.30666	-84.48952	61.16475	1534.58241	-419.79254	151.21535	1522.49359	-227.32552	140.62415	1514.05916	-281.34476	106.95608	1406.24117	-9.62567	-16.48398	1224.39160	-35.16971	8.62840	1240.42216	44.05722	40.96562	1071.05570	74.21275	62.62947	974.12643	65.76109	29.68142	989.32442	95.13035	48.58395	1410.12974	-497.97879	35.43213	1163.98688	-455.14682	42.93244	1185.52677	-535.33056	108.20964	1150.12351	-561.51837	239.77869	1029.06979	-578.73954	207.94028	1004.53940	-589.16211	80.72596	958.34590	-91.82602	46.59238	946.38296	-295.60933	99.86932	986.52963	-112.95356	72.63697	977.81023	-278.60095	
22	0.21000000	156.06949	540.02375	-67.18920	201.84406	452.07104	-84.01383	182.42925	115.65054	-133.98821	105.83697	74.18456	-184.27642	302.53257	46.92498	-98.37453	359.48166	79.35281	-162.31641	124.09769	536.68477	-399.26978	74.21344	469.07039	-413.84056	-197.47063	289.58653	-337.05004	-277.52817	326.41270	-276.08681	-206.76551	145.39691	-359.91731	-142.29397	117.71666	-304.22962	202.46882	340.68035	-67.72657	138.43265	456.85111	-43.43758	120.84932	341.77335	-44.87497	23.65679	541.28083	-397.63123	-66.46044	459.92959	-383.78870	187.98907	870.70550	-39.64661	205.32593	761.41637	-46.63709	152.72760	728.67647	-17.62557	79.97475	851.72215	-20.32119	98.59573	738.99763	-32.53610	150.12555	830.45895	-399.10507	186.03832	694.08083	-397.21077	44.66430	801.77733	-401.58599	75.36496	669.02321	-403.74640	165.12441	1083.27265	-89.32877	-25.73314	1077.01738	-132.95728	131.93851	1060.44548	-340.57444	-43.34547	1071.45307	-241.71382	48.29982	1622.79630	-252.47365	131.71828	1565.53451	-86.25158	71.89534	1535.39094	-420.91311	164.26699	1524.16173	-229.20052	153.00549	1515.40603	-283.16471	123.47219	1408.92709	-10.46300	1.91729	1225.27612	-32.74787	28.20104	1242.22409	45.92736	64.32431	1073.58239	76.26476	87.74494	977.13834	67.89974	55.03710	991.72655	97.75021	56.95253	1409.76764	-497.74453	41.26449	1164.64503	-450.28546	48.11592	1184.48817	-530.84592	112.06976	1147.39371	-557.45391	240.77702	1023.01721	-574.36442	208.25465	999.09398	-583.88227	92.57025	959.99875	-90.99613	58.56661	948.74262	-294.83961	111.37933	988.58749	-112.09477	84.56799	980.11598	-277.66788	
